<svg width="150" height="150" viewBox="0 0 150 150" fill="none" xmlns="http://www.w3.org/2000/svg">
<path d="M105.5 117C126.211 117 143 100.211 143 79.5C143 58.7893 126.211 42 105.5 42C84.7893 42 68 58.7893 68 79.5C68 100.211 84.7893 117 105.5 117Z" fill="#555555"/>
<path d="M51.5 117C67.7924 117 81 103.121 81 86C81 68.8792 67.7924 55 51.5 55C35.2076 55 22 68.8792 22 86C22 103.121 35.2076 117 51.5 117Z" fill="#C4C4C4"/>
<path d="M29.5 149C45.7924 149 59 138.031 59 124.5C59 110.969 45.7924 100 29.5 100C13.2076 100 0 110.969 0 124.5C0 138.031 13.2076 149 29.5 149Z" fill="#C4C4C4"/>
<path d="M104.252 124.574C118.971 118.807 126.068 101.79 120.103 86.5659C114.138 71.3417 97.3708 63.6749 82.6515 69.4418C67.9323 75.2086 60.8353 92.2252 66.8 107.449C72.7647 122.674 89.5323 130.34 104.252 124.574Z" fill="#C4C4C4"/>
<path d="M122.5 149C137.688 149 150 137.359 150 123C150 108.641 137.688 97 122.5 97C107.312 97 95 108.641 95 123C95 137.359 107.312 149 122.5 149Z" fill="#C4C4C4"/>
<path d="M128 100H27V149H128V100Z" fill="#C4C4C4"/>
</svg>
